<?xml version="1.0" standalone="no"?>
<!DOCTYPE svg PUBLIC "-//W3C//DTD SVG 20010904//EN"
 "http://www.w3.org/TR/2001/REC-SVG-20010904/DTD/svg10.dtd">
<svg version="1.0" xmlns="http://www.w3.org/2000/svg"
 width="246.000000pt" height="205.000000pt" viewBox="0 0 246.000000 205.000000"
 preserveAspectRatio="xMidYMid meet">

<g transform="translate(0.000000,205.000000) scale(0.100000,-0.100000)"
fill="#000000" stroke="none">
<path d="M0 1025 l0 -1025 1230 0 1230 0 0 1025 0 1025 -1230 0 -1230 0 0
-1025z m1323 271 c74 -37 107 -129 73 -210 -16 -37 -15 -39 9 -68 32 -37 39
-65 33 -132 -5 -66 -34 -107 -91 -135 -38 -18 -62 -21 -185 -21 l-142 0 0 146
0 146 134 -4 c118 -3 138 -6 163 -24 33 -25 51 -82 37 -121 -17 -48 -55 -66
-144 -69 -44 -2 -87 -1 -95 2 -22 9 -22 134 0 134 11 0 15 -12 15 -50 l0 -50
74 0 c90 0 120 18 118 71 -1 58 -26 69 -158 69 l-114 0 0 -111 0 -111 128 3
c153 5 186 18 216 91 26 63 16 112 -33 159 l-38 35 22 26 c52 61 35 156 -35
190 -27 14 -60 18 -148 18 l-113 0 3 -92 3 -93 75 -3 c100 -4 137 4 156 33 15
23 15 27 0 50 -15 23 -23 25 -86 25 l-70 0 0 -30 c0 -20 -5 -30 -15 -30 -11 0
-15 12 -15 51 l0 51 89 -4 c78 -3 93 -6 115 -27 37 -34 35 -83 -3 -122 -29
-29 -30 -29 -155 -29 l-126 0 0 131 0 131 133 -4 c103 -3 140 -8 170 -22z"/>
</g>
</svg>
